<?xml version="1.0" standalone="no"?>
<!DOCTYPE svg PUBLIC "-//W3C//DTD SVG 20010904//EN"
 "http://www.w3.org/TR/2001/REC-SVG-20010904/DTD/svg10.dtd">
<svg version="1.0" xmlns="http://www.w3.org/2000/svg"
 width="2402.000000pt" height="2402.000000pt" viewBox="0 0 2402.000000 2402.000000"
 preserveAspectRatio="xMidYMid meet">

<g transform="translate(0.000000,2402.000000) scale(0.100000,-0.100000)"
fill="#000000" stroke="none">
<path d="M0 12010 l0 -12010 12010 0 12010 0 0 12010 0 12010 -12010 0 -12010
0 0 -12010z m12107 5929 c32 2 43 -1 38 -9 -5 -7 1 -7 15 2 18 10 24 10 27 0
3 -6 10 -9 16 -5 15 9 87 11 81 2 -2 -4 7 -6 21 -6 14 0 22 3 20 8 -3 4 7 4
23 0 16 -5 36 -5 45 1 12 6 17 5 17 -3 0 -9 3 -9 14 0 11 9 15 8 20 -4 6 -17
36 -17 48 0 5 6 8 6 8 -2 0 -6 9 -9 20 -6 11 3 20 0 20 -6 0 -7 8 -8 25 -1 21
8 25 6 26 -8 1 -16 2 -16 6 1 5 21 13 21 49 2 22 -11 30 -12 37 -2 7 9 10 9
13 0 3 -7 11 -10 19 -7 7 3 23 0 35 -6 13 -7 20 -8 17 -3 -4 5 0 10 8 10 8 0
12 -4 9 -9 -4 -5 0 -8 7 -7 8 1 22 -1 32 -6 10 -4 28 -3 40 2 28 13 56 5 36
-9 -10 -7 -8 -8 6 -3 52 18 51 18 35 5 -12 -9 -9 -11 18 -6 19 3 32 1 32 -5 0
-6 4 -8 9 -4 5 3 12 1 15 -4 3 -5 15 -7 25 -4 10 3 28 0 40 -6 16 -9 21 -9 21
0 0 8 4 8 15 -1 8 -7 15 -9 15 -4 0 5 5 2 10 -6 6 -9 10 -10 10 -3 0 12 18 11
77 -2 18 -4 31 -11 28 -15 -3 -4 6 -10 20 -12 22 -5 23 -3 13 10 -11 13 -10
14 8 4 12 -6 24 -8 28 -5 3 3 6 2 6 -4 0 -6 12 -8 27 -5 22 4 25 2 20 -12 -5
-12 -3 -15 6 -9 21 13 39 13 28 -1 -7 -8 -4 -12 10 -12 10 0 19 3 19 6 0 9 47
6 56 -2 4 -5 19 -8 33 -9 14 0 20 -3 14 -6 -7 -2 -13 -9 -13 -14 0 -6 9 -5 21
1 16 9 26 8 44 -4 29 -19 38 -20 30 -3 -4 6 -1 5 7 -4 7 -9 23 -14 36 -13 12
2 22 -1 22 -7 0 -8 5 -8 15 1 12 10 15 9 15 -5 0 -14 3 -15 15 -5 12 10 15 10
15 -1 0 -8 12 -19 26 -26 21 -10 25 -10 20 2 -4 11 0 12 17 6 12 -4 28 -6 35
-4 6 3 12 0 12 -5 0 -6 -6 -13 -12 -15 -7 -3 2 -3 19 0 24 4 34 1 39 -11 4
-11 14 -15 30 -12 14 3 22 1 19 -3 -2 -5 6 -11 20 -13 14 -3 25 -1 25 4 0 5 5
6 10 3 6 -4 8 -11 5 -16 -4 -5 -3 -9 2 -10 4 0 18 -2 31 -5 12 -2 22 1 22 8 0
6 10 2 23 -10 24 -23 53 -30 41 -10 -5 7 -3 8 5 4 7 -5 10 -14 7 -21 -3 -9 5
-12 29 -11 19 1 32 -1 29 -3 -2 -2 6 -11 17 -19 18 -12 23 -13 30 -1 5 8 9 9
9 3 0 -6 11 -16 25 -22 14 -7 25 -8 25 -2 0 5 7 7 16 3 13 -5 13 -8 2 -15 -9
-7 -7 -8 10 -5 15 4 22 0 22 -10 0 -13 3 -13 15 -3 13 11 14 10 9 -3 -4 -12
-1 -14 17 -10 17 5 20 3 14 -8 -7 -11 -5 -11 10 1 17 14 18 13 12 -3 -6 -15
-4 -16 14 -6 16 8 20 8 15 0 -8 -13 30 -30 57 -25 9 1 17 -2 17 -8 0 -5 7 -8
15 -5 8 4 17 1 21 -5 5 -7 2 -8 -6 -3 -9 5 -11 4 -6 -3 4 -7 13 -12 20 -12 8
0 19 -7 26 -15 7 -9 21 -13 31 -10 11 4 19 2 19 -4 0 -6 7 -11 15 -11 8 0 15
-6 15 -12 0 -9 4 -8 10 2 8 13 10 12 10 -2 0 -10 7 -18 15 -18 9 0 27 -7 40
-16 14 -9 25 -13 25 -9 0 4 7 2 15 -5 11 -9 15 -9 15 -1 0 7 12 0 28 -14 15
-14 33 -23 40 -20 7 2 17 -4 24 -14 7 -11 18 -17 26 -13 9 3 13 1 9 -5 -4 -6
1 -14 10 -17 9 -4 19 -2 23 4 5 8 13 6 25 -7 10 -10 22 -19 27 -19 4 -1 11 -3
16 -4 4 -1 10 -2 15 -1 4 0 7 -8 7 -19 0 -13 -41 -51 -122 -116 -485 -386
-1151 -1043 -1658 -1639 -556 -652 -1041 -1341 -1472 -2090 -555 -965 -1037
-2054 -1437 -3251 -145 -435 -236 -736 -460 -1520 -110 -384 -204 -710 -209
-724 l-9 -25 -6 30 c-101 534 -118 2613 -32 3840 53 738 140 1397 212 1593
192 525 341 1082 359 1342 5 74 3 108 -10 152 -48 165 -220 247 -364 174 -82
-42 -120 -105 -177 -292 -54 -177 -195 -752 -259 -1056 -69 -326 -103 -422
-336 -938 -247 -546 -457 -950 -895 -1715 -478 -835 -662 -1126 -1236 -1957
-70 -101 -181 -279 -248 -397 -135 -236 -170 -290 -280 -435 -110 -143 -107
-140 -115 -127 -4 6 -2 11 3 11 6 0 11 4 11 10 0 5 -8 6 -17 3 -16 -6 -16 -5
-4 10 9 11 10 17 2 17 -6 0 -10 3 -10 8 3 16 -1 32 -8 31 -17 -3 -33 1 -31 9
1 4 -4 20 -10 35 -7 16 -10 32 -8 36 3 4 -4 15 -15 24 -10 9 -19 24 -19 32 0
9 -3 14 -7 12 -5 -3 -17 7 -28 22 -15 20 -15 23 -2 12 27 -21 20 -6 -13 29
-30 32 -38 46 -21 36 5 -4 7 3 4 14 -3 11 -10 23 -16 27 -6 4 -7 1 -2 -7 5 -8
4 -11 -3 -7 -5 4 -9 18 -7 32 1 16 -3 25 -12 25 -8 0 -11 5 -8 10 3 6 1 10 -6
10 -6 0 -9 8 -6 20 3 13 0 20 -10 20 -10 0 -13 6 -9 16 4 10 2 13 -6 8 -7 -5
-9 0 -6 14 4 12 2 19 -3 16 -5 -3 -12 3 -16 13 -4 10 -13 25 -21 33 -10 10
-11 15 -3 18 6 2 11 10 11 18 0 9 -5 12 -10 9 -6 -4 -15 7 -21 23 -6 17 -16
33 -23 35 -9 3 -12 15 -9 31 4 18 1 26 -8 26 -11 0 -11 2 1 10 11 7 11 10 2
10 -7 0 -11 4 -7 10 3 5 -2 18 -12 28 -10 10 -19 25 -21 33 -2 7 -7 16 -11 19
-4 3 -8 21 -9 40 -2 19 -10 43 -20 53 -9 10 -17 26 -17 35 0 10 -6 16 -15 14
-8 -2 -12 0 -8 4 4 4 2 14 -5 22 -10 13 -9 14 3 7 12 -6 12 -5 3 5 -6 7 -9 19
-6 28 5 10 2 13 -6 8 -9 -6 -12 -2 -9 11 1 10 -6 30 -18 45 -12 16 -19 38 -18
58 2 25 -1 30 -14 26 -13 -5 -12 -2 2 9 17 13 18 15 3 15 -20 0 -23 16 -4 23
7 3 4 6 -6 6 -14 1 -17 6 -11 24 3 12 3 19 -2 14 -9 -9 -36 51 -28 64 3 6 0
16 -6 24 -7 8 -10 20 -8 27 3 7 -1 19 -9 26 -16 16 -17 36 -1 26 7 -4 8 -3 4
4 -4 7 -14 12 -21 12 -9 0 -12 6 -9 15 4 8 1 22 -6 30 -9 11 -10 18 -1 29 9
11 8 18 -5 30 -9 9 -13 23 -10 32 4 10 2 13 -6 8 -7 -5 -9 -2 -5 8 3 9 0 21
-6 28 -9 10 -9 11 0 6 9 -5 11 -2 7 8 -3 9 -11 13 -17 9 -6 -4 -8 0 -4 10 3 9
2 19 -3 22 -5 3 -7 12 -3 20 3 8 0 15 -6 15 -7 0 -9 9 -5 25 3 14 2 25 -3 25
-5 0 -9 9 -10 20 -1 12 3 18 8 14 6 -3 3 8 -6 25 -9 17 -13 36 -10 41 3 6 2
10 -3 10 -6 0 -13 7 -16 16 -3 8 -2 12 4 9 6 -3 10 -2 10 3 0 6 -7 13 -16 16
-14 5 -14 9 -3 23 10 12 10 14 2 9 -7 -4 -13 -2 -13 3 0 6 5 11 10 11 6 0 10
5 10 10 0 6 -7 10 -15 10 -11 0 -12 5 -5 26 7 18 7 23 -1 18 -8 -5 -10 1 -7
19 4 18 1 24 -9 20 -16 -6 -17 2 -3 27 8 15 7 18 -3 15 -9 -4 -12 9 -12 51 1
31 -5 68 -13 82 -9 18 -10 28 -3 30 6 2 4 10 -5 20 -11 11 -13 17 -5 20 6 2
11 10 11 18 0 9 -4 13 -9 10 -4 -3 -7 6 -5 19 1 14 -2 25 -7 25 -6 0 -7 5 -4
10 4 6 11 7 17 4 7 -4 8 -2 4 5 -4 6 -12 9 -17 6 -5 -4 -9 5 -9 19 0 13 -5 37
-10 52 -9 24 -9 25 5 14 13 -11 14 -10 9 4 -3 9 -11 16 -17 16 -6 0 -2 7 9 16
10 8 13 12 5 8 -11 -5 -13 -3 -8 9 4 11 1 17 -7 17 -15 0 -16 16 -2 39 7 11 6
12 -5 6 -12 -8 -12 -6 0 8 9 12 10 17 2 17 -7 0 -9 5 -6 10 3 6 2 10 -4 10 -7
0 -7 8 -1 24 6 17 5 26 -3 29 -9 3 -9 12 0 40 7 23 8 39 2 43 -6 3 -7 15 -3
26 3 11 2 18 -3 15 -5 -3 -9 6 -10 21 0 15 -2 36 -3 47 -2 11 1 33 5 49 6 21
5 27 -4 22 -6 -4 -11 -1 -11 9 0 9 3 14 8 12 4 -3 7 15 8 39 0 24 -2 44 -6 44
-4 0 -7 7 -7 15 0 8 4 15 9 15 5 0 6 5 3 10 -4 6 -10 8 -15 5 -5 -3 -5 9 0 26
5 18 7 35 5 40 -3 4 0 9 6 11 9 3 9 10 -1 27 -10 19 -10 22 2 15 7 -4 4 3 -7
16 -11 13 -14 20 -7 16 14 -8 17 10 2 19 -13 8 -13 45 0 45 5 0 7 7 4 15 -4 8
-2 15 4 15 11 0 5 71 -9 85 -14 14 -11 28 6 22 11 -5 12 -1 5 18 -10 26 -9 85
1 85 10 0 5 45 -6 52 -6 5 -5 8 3 8 7 0 10 5 7 11 -10 15 -13 89 -4 89 5 0 6
13 4 30 -2 16 0 32 5 35 4 3 7 13 5 23 -1 9 2 27 6 40 5 13 5 22 -1 22 -6 0
-10 7 -10 15 0 8 5 15 10 15 13 0 13 37 0 45 -8 5 -8 11 -1 19 6 7 8 16 4 19
-3 4 -2 7 3 7 6 0 10 22 10 50 1 27 -2 47 -7 45 -15 -10 -2 28 15 41 14 10 16
16 6 34 -9 16 -8 25 2 37 10 13 10 17 1 20 -7 3 -13 12 -13 21 0 15 2 15 11 2
7 -11 9 -2 6 33 -3 44 5 63 16 35 2 -7 3 2 2 20 -1 18 -5 35 -9 39 -10 11 -7
23 7 21 7 -2 11 5 9 16 -2 10 2 23 10 27 11 7 11 9 -1 9 -11 0 -11 3 0 17 12
14 12 16 -1 9 -8 -4 -6 0 4 8 15 12 16 16 5 17 -10 0 -11 2 -1 6 10 4 10 8 0
21 -11 13 -11 15 3 10 16 -6 20 16 6 39 -4 6 -3 14 3 18 15 9 12 28 -2 19 -7
-4 -6 1 3 12 25 30 34 48 20 39 -10 -6 -11 -3 -2 14 7 11 8 21 4 21 -4 0 -1 5
7 10 10 6 11 10 3 10 -7 0 -13 5 -13 11 0 5 4 8 9 5 13 -8 20 16 14 49 -5 22
-3 26 8 20 11 -6 12 -5 2 5 -10 11 -9 16 5 27 9 8 11 11 3 7 -11 -5 -13 -3 -8
10 4 10 7 22 7 27 0 6 6 7 13 3 9 -5 9 -4 0 6 -13 14 -6 43 9 34 6 -4 4 4 -3
17 -11 22 -11 23 4 11 14 -12 15 -10 11 17 -3 17 -1 31 4 31 16 0 23 30 11 52
-7 13 -8 23 -1 27 5 3 12 16 16 29 4 12 12 22 17 22 6 0 7 5 4 10 -3 6 -1 10
5 10 6 0 4 8 -6 18 -16 15 -16 17 -2 20 11 2 15 11 12 27 -3 15 2 25 12 29 12
5 14 9 5 20 -8 10 -8 16 3 25 7 6 13 22 14 36 0 13 7 31 16 41 10 10 14 24 10
36 -4 15 -3 18 7 13 9 -6 11 -3 6 8 -4 10 -2 17 5 17 6 0 5 6 -3 17 -12 15
-12 16 3 10 12 -4 15 -2 12 7 -3 8 0 17 5 21 6 3 9 11 6 16 -4 5 -1 9 5 9 6 0
8 5 5 10 -3 6 -1 10 4 10 6 0 11 5 11 11 0 5 -4 7 -10 4 -6 -3 -7 1 -4 9 3 9
10 14 14 11 5 -3 6 5 3 16 -4 15 0 27 12 35 11 8 13 14 6 14 -9 0 -8 5 3 16 9
8 16 26 16 39 0 13 8 29 18 34 11 7 12 11 4 11 -10 0 -10 4 2 16 9 8 16 19 16
23 0 4 9 19 21 32 18 21 18 25 5 35 -14 10 -13 13 9 30 14 11 20 21 14 25 -7
4 -4 12 6 23 12 12 13 16 3 16 -8 0 -6 4 5 11 21 12 59 84 49 94 -4 3 2 13 12
21 11 8 15 14 8 14 -13 0 -7 39 9 54 9 8 10 7 4 -3 -5 -9 -4 -12 3 -7 6 4 9
13 5 21 -3 8 0 15 6 15 6 0 11 9 11 20 0 11 5 19 11 18 6 -2 14 3 17 11 3 9 0
11 -9 7 -8 -4 -4 1 9 12 15 14 18 22 10 25 -9 4 -7 6 3 6 9 1 16 9 16 19 0 27
14 62 25 62 5 0 6 5 3 10 -3 6 2 10 12 11 10 0 13 3 6 6 -7 2 -13 9 -13 14 0
6 5 7 10 4 9 -5 15 15 11 38 0 4 6 7 14 7 19 0 47 43 40 62 -4 9 1 18 10 22
11 4 15 12 11 22 -5 12 -2 15 11 10 14 -6 15 -4 6 5 -12 12 -7 23 30 57 18 18
24 37 7 27 -5 -3 0 10 13 29 12 19 31 37 42 40 15 4 17 8 8 17 -14 14 3 59 23
59 15 0 26 28 17 42 -3 6 -1 8 5 4 6 -3 14 -1 19 6 8 13 9 18 12 41 1 8 4 8
10 -2 7 -11 12 -6 19 20 5 19 14 33 20 32 6 -2 9 3 6 10 -2 7 9 26 26 42 16
16 30 37 30 47 0 14 6 17 24 14 18 -3 29 2 41 20 9 14 20 22 25 19 6 -3 7 1 4
10 -4 8 -1 21 5 29 6 7 7 17 3 22 -4 4 2 2 12 -6 18 -14 19 -13 13 4 -6 14 -4
17 9 12 13 -5 14 -3 6 6 -8 10 -5 20 10 38 11 14 17 18 13 10 -4 -8 1 -6 9 5
9 11 14 25 12 31 -3 7 6 15 20 18 13 4 24 11 24 17 0 6 -6 7 -12 3 -9 -5 -9
-2 1 9 7 9 20 17 28 17 9 0 13 6 9 15 -3 9 0 15 9 15 8 0 17 11 21 25 3 14 10
22 15 19 5 -3 9 0 9 6 0 6 5 8 13 4 9 -6 9 -5 0 7 -8 9 -9 20 -3 29 6 8 10 11
10 6 0 -5 7 -3 15 4 11 9 12 17 5 30 -14 26 -13 30 8 30 13 0 14 2 3 9 -11 7
-7 12 15 25 16 8 22 15 14 16 -13 0 -13 2 0 9 8 6 17 8 20 6 3 -1 11 3 18 11
7 8 10 14 7 14 -3 0 12 16 32 36 21 20 32 33 24 29 -9 -5 -7 2 5 17 10 15 24
25 29 25 6 -1 8 7 7 18 -2 11 -1 17 3 13 4 -4 17 -2 28 3 14 8 16 13 8 19 -9
5 -5 15 13 35 14 15 26 24 26 19 0 -5 5 -1 11 9 5 9 17 17 25 17 8 0 12 4 9
10 -3 5 1 20 9 32 9 12 16 18 16 12 0 -5 -6 -16 -12 -23 -11 -10 -10 -11 5 -5
9 3 20 17 23 30 3 13 9 22 13 21 3 -1 17 6 31 16 13 9 19 17 13 17 -7 0 -15
-4 -18 -10 -3 -5 -11 -10 -17 -10 -6 0 2 10 18 23 16 12 32 21 36 20 4 -2 5 4
2 12 -4 9 0 15 8 15 8 0 25 9 38 20 13 11 18 20 11 20 -9 0 -8 4 1 14 11 12
14 11 20 -3 5 -12 7 -11 7 7 1 13 7 22 16 22 9 0 18 7 21 15 4 8 9 13 13 11 4
-3 13 10 21 27 7 17 15 26 18 19 3 -9 7 -8 18 2 16 17 19 30 4 21 -22 -14 -8
3 21 24 27 20 29 20 21 4 -12 -22 1 -53 13 -33 4 6 18 16 32 21 21 8 23 12 12
25 -10 12 -10 15 2 12 8 -2 13 3 12 10 -3 11 12 16 44 15 7 0 12 2 11 6 -2 20
4 30 22 36 11 3 20 13 20 20 0 8 4 17 10 20 6 3 7 -1 4 -9 -9 -23 -1 -20 27
11 13 14 17 22 9 18 -10 -5 -8 -1 4 13 11 12 24 22 30 21 6 0 6 -3 -1 -6 -7
-2 -13 -10 -13 -16 1 -7 9 -2 20 11 11 14 24 20 31 16 7 -4 9 -3 6 3 -4 6 5
15 20 22 14 6 23 15 19 18 -3 4 -12 1 -18 -5 -7 -7 -17 -12 -23 -12 -5 0 2 8
18 18 15 10 24 22 20 26 -4 4 0 4 10 0 10 -3 17 -1 17 6 0 6 4 9 9 6 12 -8 33
19 23 29 -4 5 1 5 11 2 12 -5 17 -1 17 14 0 11 5 17 10 14 6 -4 7 -11 4 -17
-4 -7 -2 -8 5 -4 6 4 9 12 6 17 -4 5 1 9 9 9 9 0 16 5 16 11 0 5 5 7 10 4 6
-3 10 2 10 12 0 15 2 16 10 3 9 -13 10 -13 11 0 1 8 1 18 0 22 0 5 2 7 7 5 4
-1 17 8 30 21 15 15 30 21 43 17 11 -4 19 -2 19 5 0 6 -4 8 -10 5 -5 -3 -10
-1 -10 5 0 6 7 13 15 16 8 4 15 14 15 24 0 9 9 25 20 35 20 18 21 18 15 -1 -4
-15 -3 -14 6 3 6 12 24 27 40 34 16 6 29 15 29 20 0 5 7 9 16 9 8 0 12 5 9 10
-6 9 -1 11 38 14 17 1 37 28 30 41 -4 5 -3 7 2 3 9 -8 66 21 78 40 5 7 13 10
18 6 5 -3 8 0 7 8 -2 7 5 12 15 12 9 -1 17 3 17 8 0 6 7 8 14 5 10 -4 13 -1
10 7 -3 8 0 17 7 22 7 4 10 3 5 -4 -3 -6 -2 -13 3 -16 5 -3 11 3 14 14 3 11
10 20 17 20 6 0 8 -6 5 -12 -4 -7 0 -5 8 5 9 10 19 19 24 20 4 0 13 5 18 9 6
5 23 19 39 33 17 13 34 21 39 18 4 -3 14 2 20 11 7 9 22 18 34 19 13 0 25 7
27 14 3 7 14 13 24 13 10 0 27 9 38 21 10 11 26 18 35 16 10 -3 20 1 23 9 3 7
14 11 26 9 11 -2 18 0 15 6 -4 5 2 9 12 9 15 0 16 2 3 11 -12 9 -11 10 6 6 13
-3 25 2 32 13 6 10 28 21 49 25 21 4 57 20 81 36 24 16 40 24 36 17 -4 -7 5
-2 21 12 16 14 25 19 21 13 -4 -7 -4 -13 -1 -13 11 0 34 27 30 34 -3 3 0 2 6
-3 8 -6 18 -3 30 8 11 10 33 18 50 19 17 0 40 8 50 18 10 9 19 13 19 9 0 -5 5
-4 12 3 7 7 20 12 30 12 11 0 15 5 12 15 -7 17 7 20 23 4 8 -8 15 -6 24 8 8
10 25 19 39 21 13 1 29 8 35 14 7 8 6 9 -4 3 -9 -5 -12 -4 -8 2 4 6 18 8 32 5
16 -3 33 2 46 14 19 17 20 17 14 -2 -7 -19 -6 -19 9 0 9 11 16 16 16 10 0 -5
4 -3 9 5 5 8 17 16 26 17 9 1 25 10 36 20 10 9 22 14 25 11 4 -3 16 -2 27 4
15 9 18 8 12 -3 -6 -10 -5 -11 6 0 16 15 33 16 23 0 -4 -7 -3 -8 4 -4 7 4 12
13 12 20 0 7 12 11 28 11 27 -1 84 23 90 38 2 4 10 3 18 -4 9 -7 14 -8 14 -1
0 6 11 9 25 7 19 -2 23 1 15 10 -8 9 -4 11 15 7 18 -3 30 1 40 14 8 11 15 15
15 9 0 -5 5 -3 10 5 9 13 11 13 20 0 9 -13 10 -13 10 0 0 13 1 13 10 0 6 -10
10 -11 10 -3 0 8 11 11 30 9 31 -4 50 8 28 18 -7 3 -1 3 15 1 15 -2 27 1 27 7
0 7 5 6 14 -1 11 -10 16 -8 24 5 6 10 16 15 26 11 9 -4 16 -2 16 4 0 6 5 7 10
4 6 -3 10 -1 10 6 0 8 4 8 15 -1 12 -10 16 -9 21 4 3 9 10 14 14 11 5 -3 11
-1 15 5 4 7 13 7 26 0 14 -8 19 -8 17 1 -2 6 3 14 11 17 10 3 11 0 5 -9 -7
-12 -5 -12 9 0 11 8 17 9 17 3 0 -6 7 -9 15 -6 8 4 12 10 9 15 -3 5 3 6 12 2
13 -5 15 -3 9 7 -6 9 -4 11 5 5 19 -12 60 -13 60 -2 0 5 15 7 33 3 20 -4 27
-3 18 3 -11 7 -11 10 0 17 8 4 14 3 17 -5 3 -9 8 -9 20 1 12 10 14 10 8 1 -4
-7 -3 -13 3 -13 5 0 11 5 13 12 5 14 38 20 38 7 0 -6 6 -7 16 -1 9 5 26 7 37
4 12 -3 18 -1 14 5 -4 6 3 14 16 18 34 11 78 14 73 6 -3 -4 5 -6 17 -5 12 1
25 3 30 3 4 1 7 9 8 19 0 9 3 12 5 5 3 -7 12 -9 21 -6 12 5 14 2 9 -8 -4 -8 0
-5 8 5 16 20 16 20 17 0 1 -15 3 -14 9 6 4 14 8 20 9 13 1 -11 25 -12 36 -1 4
3 19 3 33 -1 32 -9 55 -3 46 11 -5 7 -2 8 6 3 18 -11 80 -14 74 -3 -3 4 0 8 5
8 6 0 11 -6 11 -12 0 -9 3 -9 9 1 5 8 16 11 26 8 9 -4 14 -3 10 3 -3 6 1 10
10 10 9 0 14 -4 11 -8 -3 -5 1 -9 9 -9 8 0 12 4 9 9 -8 13 11 9 24 -4 10 -10
15 -10 22 2 5 8 10 12 10 7 0 -4 13 -1 30 8 27 14 29 14 23 -2 -6 -15 -4 -16
8 -6 17 14 69 25 69 15 0 -6 84 -8 100 -2 26 9 50 8 50 -3 0 -8 3 -8 8 -1 9
13 45 27 37 15 -3 -5 -1 -12 5 -16 5 -3 10 -1 10 5 0 7 8 9 20 5 11 -3 20 -2
20 3 0 6 11 9 25 8 15 0 23 -6 21 -13 -5 -12 19 -12 31 2 4 4 2 5 -4 1 -7 -4
-13 -2 -13 3 0 14 17 14 25 1 4 -6 15 -6 32 1 17 6 30 6 39 -2 7 -6 19 -7 26
-3 7 5 21 7 32 5 13 -2 16 1 10 11 -6 9 -3 9 10 -1 11 -9 35 -14 63 -12z
m-462 1 c3 -6 -1 -7 -9 -4 -18 7 -21 14 -7 14 6 0 13 -4 16 -10z m2995 -554
c0 -11 -19 -15 -25 -6 -3 5 1 10 9 10 9 0 16 -2 16 -4z m919 -528 c11 -11 13
-10 7 2 -4 8 0 6 9 -5 9 -11 30 -25 48 -32 18 -6 25 -12 17 -13 -8 0 0 -7 18
-15 17 -8 32 -19 32 -25 0 -5 5 -10 11 -10 5 0 7 5 4 10 -4 6 4 5 19 -1 14 -7
23 -15 21 -19 -3 -5 2 -11 11 -14 8 -3 12 -11 8 -17 -4 -7 -1 -10 7 -7 8 3 29
-10 48 -29 34 -34 50 -43 35 -20 -5 7 -1 4 10 -8 10 -11 22 -19 26 -18 4 1 13
-8 20 -21 8 -16 18 -22 31 -19 12 4 19 0 19 -10 0 -13 33 -31 53 -28 5 1 6 -3
2 -9 -3 -5 1 -10 10 -10 9 0 13 -5 10 -10 -4 -6 8 -16 26 -22 29 -10 31 -12
13 -19 -17 -7 -17 -8 4 -8 13 -1 21 -5 18 -9 -2 -4 4 -14 16 -21 11 -7 17 -8
13 -2 -10 18 3 13 30 -11 14 -12 25 -28 25 -36 0 -9 3 -13 6 -9 9 8 57 -33 82
-69 7 -10 9 -12 5 -4 -6 13 -4 13 10 1 9 -7 14 -18 11 -23 -4 -6 2 -8 15 -3
16 5 20 3 15 -9 -4 -10 2 -17 20 -22 14 -3 25 -9 24 -13 -2 -19 3 -31 12 -26
6 3 10 -1 10 -9 0 -9 5 -16 11 -16 5 0 7 6 3 13 -4 6 10 -6 32 -27 21 -22 38
-43 37 -48 -2 -4 3 -8 10 -8 18 0 58 -35 50 -44 -3 -3 0 -6 8 -6 16 0 49 -34
49 -50 0 -6 8 -14 17 -17 18 -7 57 -43 46 -43 -3 0 10 -16 30 -35 21 -20 37
-44 38 -53 0 -14 2 -13 8 3 8 19 8 19 19 -1 6 -12 10 -23 8 -25 -2 -2 6 -13
17 -24 11 -11 16 -14 12 -6 -5 10 -4 12 4 7 6 -4 9 -12 6 -17 -9 -14 52 -72
66 -63 7 4 9 3 5 -4 -3 -6 1 -18 10 -26 8 -9 13 -16 9 -16 -3 0 0 -6 7 -14 7
-8 14 -13 16 -11 4 4 63 -52 65 -62 1 -4 14 -19 30 -32 15 -13 26 -30 23 -37
-3 -8 0 -11 10 -7 8 3 14 2 13 -3 -4 -26 2 -43 15 -38 8 3 17 0 22 -7 4 -8 3
-10 -4 -5 -17 10 -15 -1 5 -23 9 -11 21 -17 27 -14 6 4 5 -1 -3 -10 -12 -15
-12 -17 3 -11 14 6 21 -5 17 -28 0 -5 5 -8 13 -8 13 0 30 -34 27 -53 -1 -5 3
-6 8 -3 12 8 43 -23 35 -35 -3 -5 2 -12 10 -15 9 -3 16 -12 16 -19 0 -8 5 -17
12 -21 7 -5 8 -3 3 6 -5 9 -4 11 4 6 7 -4 11 -17 9 -29 -2 -13 2 -22 10 -22
15 0 33 -26 26 -37 -3 -4 2 -8 10 -8 14 0 20 -12 14 -25 -2 -2 7 -12 20 -20
12 -9 20 -21 17 -26 -3 -5 0 -6 8 -3 8 3 18 1 22 -5 3 -6 1 -11 -4 -11 -6 0
-11 -8 -10 -17 0 -12 2 -13 6 -5 4 10 8 10 19 1 8 -6 11 -16 8 -21 -3 -5 2
-16 12 -24 11 -9 13 -13 7 -9 -7 3 -13 1 -13 -4 0 -6 6 -11 14 -11 8 0 19 -14
25 -31 6 -17 15 -28 21 -24 5 3 7 0 4 -8 -3 -8 2 -17 10 -20 10 -4 13 -13 9
-23 -4 -12 -3 -15 5 -10 7 4 12 2 12 -4 0 -6 4 -9 8 -6 5 3 9 -1 9 -9 0 -8 -5
-12 -11 -8 -6 3 2 -6 18 -19 16 -14 31 -35 33 -49 2 -13 9 -28 15 -34 8 -7 9
-6 3 4 -5 10 -4 12 4 7 6 -4 9 -11 6 -16 -3 -5 -1 -11 5 -15 5 -3 10 -15 10
-26 0 -10 5 -19 11 -19 5 0 8 -3 6 -7 -2 -5 2 -21 9 -38 9 -22 13 -25 14 -11
0 27 11 13 15 -20 3 -31 -20 -71 -161 -270 -227 -323 -563 -864 -776 -1249
-605 -1094 -1082 -2235 -1503 -3595 -103 -335 -134 -439 -369 -1265 -68 -242
-129 -451 -134 -465 l-9 -25 -7 30 c-13 63 -36 289 -51 505 -43 606 -45 2017
-5 2900 38 827 147 1774 232 2010 233 652 378 1222 366 1440 -10 162 -117 273
-264 273 -147 0 -215 -75 -289 -320 -54 -176 -195 -751 -259 -1056 -60 -284
-74 -328 -180 -582 -233 -553 -532 -1156 -873 -1760 -576 -1021 -832 -1435
-1335 -2157 -116 -167 -228 -345 -320 -505 -77 -137 -155 -268 -171 -293 -70
-103 -466 -630 -524 -697 -68 -79 -77 -109 -43 -143 11 -11 31 -20 44 -20 18
0 134 112 483 463 253 254 512 518 574 587 115 127 423 529 650 850 68 96 137
193 153 215 75 106 427 643 543 830 218 353 440 740 638 1117 54 103 101 186
103 183 3 -2 -1 -105 -7 -227 -50 -978 -53 -2450 -6 -3148 55 -809 160 -1153
385 -1259 44 -21 70 -26 130 -26 178 0 309 126 418 401 63 159 114 322 242
779 260 926 354 1238 520 1735 282 845 597 1611 966 2350 291 580 531 997 869
1505 175 262 240 349 255 340 4 -3 11 -21 14 -40 4 -20 11 -33 16 -30 4 3 7
-6 5 -20 -1 -14 2 -28 8 -32 6 -4 7 -1 2 8 -5 8 -5 11 -1 7 4 -3 8 -10 8 -15
-1 -4 7 -16 16 -27 19 -21 19 -25 0 -37 -10 -7 -8 -10 9 -15 26 -7 39 -34 17
-34 -8 0 -12 -5 -9 -10 4 -6 11 -8 16 -5 8 6 11 -2 13 -50 1 -11 7 -19 14 -17
8 1 11 -2 7 -8 -3 -5 0 -10 7 -10 9 0 9 -3 -2 -10 -8 -5 -10 -10 -4 -10 14 0
27 -36 26 -68 -1 -12 3 -20 8 -17 6 4 10 -1 10 -10 0 -10 -5 -13 -12 -9 -7 4
-5 -2 5 -13 9 -11 14 -23 10 -28 -5 -4 -3 -5 4 -1 6 3 14 2 18 -4 3 -5 2 -10
-4 -10 -6 0 -8 -7 -5 -15 4 -8 9 -13 14 -10 4 2 6 -6 5 -20 -2 -13 3 -26 12
-29 8 -3 11 -10 8 -16 -3 -5 0 -10 7 -10 11 0 10 -2 0 -9 -11 -7 -11 -9 2 -14
9 -4 16 -16 16 -27 0 -12 -4 -19 -8 -16 -5 3 -9 -1 -9 -9 0 -8 4 -12 9 -9 5 4
8 -2 6 -12 -2 -11 3 -19 12 -19 9 0 15 -9 15 -22 0 -11 3 -24 7 -28 4 -4 4
-13 2 -20 -3 -7 -1 -16 5 -20 6 -3 11 -20 11 -36 0 -20 4 -28 12 -23 7 4 8 3
4 -5 -4 -6 -3 -18 4 -26 7 -8 7 -15 1 -19 -6 -4 -8 -13 -5 -21 4 -8 10 -13 14
-10 4 3 10 -4 13 -15 3 -11 1 -18 -4 -14 -5 3 -9 -2 -9 -11 0 -9 4 -14 9 -10
6 3 10 -3 10 -12 0 -32 25 -128 35 -135 11 -8 18 -60 6 -53 -14 9 -4 -26 11
-37 9 -6 10 -11 3 -14 -6 -3 -9 -16 -6 -29 2 -14 8 -22 13 -19 5 3 9 -15 9
-39 0 -28 6 -49 15 -57 9 -8 12 -17 7 -24 -7 -9 -7 -37 0 -103 1 -6 8 -8 17
-5 14 5 14 3 2 -11 -9 -11 -10 -21 -4 -29 15 -20 24 -50 13 -43 -6 3 -10 0
-10 -8 0 -8 7 -18 15 -21 13 -5 14 -10 4 -27 -6 -12 -7 -19 -2 -16 6 4 10 -10
11 -29 1 -19 5 -40 8 -46 4 -7 3 -8 -4 -4 -7 4 -12 3 -12 -3 0 -5 5 -11 12
-13 15 -5 19 -38 5 -38 -7 0 -4 -5 6 -11 18 -11 24 -39 7 -39 -5 0 -10 -9 -10
-21 0 -11 5 -17 10 -14 6 4 8 -7 5 -30 -2 -19 -1 -34 3 -31 4 3 9 -4 9 -15 1
-11 -1 -18 -5 -15 -4 2 -7 -13 -7 -35 0 -28 4 -39 15 -39 13 0 13 -1 0 -10
-10 -6 -11 -10 -2 -10 6 0 12 -7 12 -15 0 -8 -6 -15 -12 -15 -8 0 -9 -3 -3 -8
13 -9 18 -32 7 -32 -5 0 -9 -6 -9 -14 0 -8 6 -12 14 -9 15 6 18 -23 3 -32 -15
-9 -12 -27 3 -19 10 6 10 4 0 -7 -7 -7 -13 -18 -13 -24 0 -5 5 -3 10 5 9 13
10 13 11 0 1 -8 0 -19 -1 -25 -2 -5 -2 -23 -1 -39 1 -16 -4 -33 -11 -38 -7 -4
-8 -8 -3 -8 6 0 11 -20 10 -45 0 -25 4 -45 10 -45 5 0 3 -5 -5 -10 -10 -7 -11
-10 -2 -10 13 0 11 -78 -3 -100 -3 -6 1 -13 9 -16 18 -7 22 -34 5 -34 -5 0 -7
5 -3 12 4 6 3 8 -4 4 -6 -4 -8 -17 -3 -34 4 -15 6 -33 3 -41 -3 -10 0 -11 9
-5 11 6 11 4 -1 -10 -20 -26 -22 -46 -2 -39 14 5 13 2 -3 -17 -17 -20 -18 -23
-3 -17 19 7 21 -12 4 -25 -6 -3 -11 -39 -13 -80 -2 -40 -4 -97 -5 -127 -2 -36
1 -55 10 -58 9 -4 10 -9 1 -19 -6 -7 -8 -18 -4 -24 4 -6 3 -10 -2 -9 -20 4
-23 -2 -8 -17 12 -13 13 -19 3 -31 -9 -12 -9 -16 2 -23 12 -7 11 -10 -3 -16
-14 -5 -15 -9 -6 -20 9 -11 8 -14 -1 -14 -8 0 -10 -3 -7 -7 4 -3 1 -13 -6 -21
-10 -13 -9 -14 3 -7 13 8 13 7 1 -9 -12 -14 -12 -19 -1 -29 10 -10 11 -9 5 2
-5 9 -4 12 3 7 6 -4 9 -13 6 -21 -4 -8 -11 -12 -18 -8 -7 5 -7 2 1 -8 7 -9 9
-20 3 -29 -5 -9 -5 -19 2 -27 7 -9 7 -13 -1 -13 -7 0 -10 -4 -7 -9 9 -15 -5
-42 -18 -34 -6 4 -5 -1 3 -11 9 -10 11 -20 5 -24 -14 -10 -16 -33 -4 -47 7 -9
6 -16 -5 -25 -11 -9 -12 -17 -5 -31 9 -15 8 -17 -6 -12 -13 5 -15 3 -8 -8 12
-18 13 -79 1 -79 -4 0 -6 -4 -2 -9 3 -5 1 -12 -5 -16 -5 -3 -7 -18 -4 -32 5
-19 4 -24 -5 -18 -9 5 -9 1 1 -14 9 -15 10 -24 2 -29 -17 -11 -22 -35 -12 -56
7 -13 7 -16 -1 -12 -6 4 -11 1 -11 -8 0 -8 -3 -22 -7 -32 -4 -12 -3 -15 5 -10
7 4 12 2 12 -3 0 -6 -8 -11 -17 -11 -12 0 -14 -3 -6 -8 13 -8 6 -62 -9 -62 -5
0 -6 5 -2 12 5 7 3 8 -6 3 -10 -6 -9 -11 5 -22 17 -12 17 -14 -2 -12 -12 1
-21 -36 -11 -42 6 -4 6 -15 -2 -28 -6 -12 -8 -31 -4 -43 4 -13 2 -18 -4 -14
-7 4 -10 -4 -9 -21 1 -16 -3 -27 -9 -26 -6 1 -10 -9 -8 -22 1 -14 -1 -25 -6
-25 -4 0 -10 -9 -13 -20 -3 -11 -2 -20 2 -20 4 0 8 -7 8 -15 0 -10 -6 -14 -15
-10 -12 4 -12 2 -3 -8 12 -15 4 -77 -10 -77 -5 0 -9 -10 -9 -22 0 -19 -2 -20
-10 -8 -9 13 -10 13 -10 -1 0 -8 5 -20 12 -27 9 -9 8 -13 -4 -17 -12 -5 -15
-15 -11 -38 4 -26 3 -29 -10 -19 -12 10 -13 8 -9 -13 2 -15 0 -25 -8 -25 -6 0
-11 -10 -10 -22 4 -39 0 -49 -12 -42 -8 5 -9 2 -5 -9 3 -10 2 -17 -4 -17 -6 0
-6 -7 1 -20 9 -16 8 -20 -5 -20 -12 0 -14 -7 -10 -31 4 -20 2 -28 -5 -24 -7 4
-9 -2 -4 -19 5 -20 2 -26 -11 -26 -10 0 -15 -7 -14 -17 3 -26 -21 -84 -32 -77
-5 3 -6 -2 -3 -11 4 -8 1 -22 -6 -30 -6 -8 -10 -18 -7 -22 9 -15 -12 -55 -25
-47 -9 6 -9 3 1 -9 8 -10 9 -17 3 -17 -6 0 -9 -9 -7 -20 2 -11 -1 -20 -6 -20
-12 0 -39 -61 -33 -72 3 -5 0 -8 -5 -8 -6 0 -11 -7 -11 -16 0 -8 -4 -13 -8
-10 -5 3 -6 -8 -4 -25 3 -18 0 -29 -7 -29 -7 0 -9 5 -5 12 4 7 3 8 -5 4 -9 -6
-9 -11 1 -24 10 -12 10 -14 1 -8 -7 4 -14 2 -14 -3 -1 -6 -3 -15 -4 -21 -1 -5
-3 -15 -4 -21 0 -5 -5 -7 -11 -4 -5 3 -12 -6 -16 -21 -4 -17 -2 -29 7 -35 10
-6 11 -9 2 -9 -7 0 -13 -6 -13 -14 0 -7 -7 -19 -15 -26 -8 -7 -12 -16 -9 -21
3 -5 0 -9 -5 -9 -6 0 -11 -8 -11 -19 0 -10 -9 -30 -21 -45 -11 -15 -18 -33
-15 -41 3 -9 -1 -15 -11 -15 -13 0 -13 -3 -3 -15 11 -13 10 -14 -3 -9 -11 4
-21 -4 -31 -25 -15 -28 -15 -30 1 -24 11 4 14 3 9 -5 -4 -7 -14 -12 -23 -12
-12 0 -13 -3 -4 -14 10 -12 8 -17 -9 -26 -11 -6 -18 -15 -15 -21 4 -5 0 -9 -7
-9 -9 0 -9 -3 2 -10 13 -8 13 -10 -1 -10 -10 0 -19 -11 -22 -30 -4 -16 -16
-39 -27 -50 -11 -11 -18 -26 -14 -32 5 -7 2 -9 -8 -5 -11 4 -18 -1 -21 -14 -3
-11 -1 -16 5 -13 6 4 6 -1 -1 -13 -6 -11 -8 -23 -5 -26 3 -3 -3 -4 -13 -4 -10
1 -17 -4 -15 -12 2 -7 -3 -21 -11 -30 -8 -9 -17 -24 -20 -34 -4 -10 -11 -15
-17 -12 -9 5 -15 -15 -11 -37 0 -5 -4 -8 -10 -8 -5 0 -7 -4 -4 -10 3 -5 1 -10
-5 -10 -6 0 -9 -4 -6 -9 3 -4 -3 -16 -14 -26 -11 -10 -17 -21 -15 -25 2 -4 -4
-15 -15 -25 -11 -10 -17 -22 -14 -26 3 -5 -4 -9 -14 -9 -21 0 -47 -53 -36 -71
3 -5 -7 -14 -22 -19 -20 -8 -24 -14 -16 -22 13 -13 -2 -38 -23 -38 -7 0 -15
-9 -18 -21 -3 -12 -10 -18 -15 -15 -6 4 -9 -4 -8 -19 2 -13 0 -22 -5 -20 -4 3
-10 -4 -14 -15 -3 -11 -11 -20 -17 -20 -6 0 -8 -3 -5 -6 11 -11 -13 -45 -39
-54 -13 -5 -24 -17 -24 -25 0 -9 -4 -14 -9 -11 -4 3 -6 -6 -3 -21 3 -16 1 -24
-5 -20 -6 4 -19 0 -29 -8 -10 -9 -14 -14 -9 -13 6 2 11 -1 12 -7 2 -5 -5 -10
-15 -10 -10 0 -17 -8 -17 -19 0 -11 -6 -21 -12 -23 -7 -3 -20 -21 -30 -40 -14
-30 -18 -33 -23 -18 -6 16 -8 14 -18 -12 -5 -17 -7 -34 -4 -38 4 -3 -1 -3 -11
1 -13 4 -17 1 -17 -15 0 -12 -4 -21 -10 -21 -5 0 -10 -10 -11 -22 0 -13 -3
-17 -6 -10 -4 10 -8 10 -19 1 -8 -6 -11 -15 -8 -20 3 -5 -2 -6 -11 -3 -11 5
-14 2 -9 -10 4 -11 1 -16 -11 -16 -11 0 -15 -5 -11 -16 3 -8 2 -12 -4 -9 -5 3
-14 -5 -21 -17 -7 -13 -21 -31 -31 -40 -11 -9 -17 -21 -14 -27 4 -5 1 -13 -5
-17 -7 -4 -9 -3 -5 4 3 6 2 13 -4 17 -6 3 -10 -3 -10 -15 0 -24 -22 -50 -41
-50 -7 0 -10 -3 -6 -6 3 -4 -1 -13 -9 -21 -8 -9 -18 -13 -21 -9 -10 9 -32 -14
-27 -28 3 -8 -4 -16 -16 -19 -13 -3 -19 -10 -15 -17 3 -6 -5 -24 -19 -41 -14
-17 -26 -25 -26 -17 0 8 -4 6 -11 -5 -6 -9 -14 -15 -20 -12 -5 4 -6 -2 -2 -11
4 -12 3 -15 -5 -10 -7 4 -12 2 -12 -4 0 -6 -4 -9 -9 -5 -5 3 -13 0 -17 -6 -4
-7 -3 -9 4 -5 6 3 13 2 17 -4 3 -5 -1 -10 -9 -10 -8 0 -17 -9 -21 -19 -4 -12
-12 -17 -24 -14 -19 5 -36 -21 -25 -38 3 -5 0 -9 -5 -9 -6 0 -11 5 -11 11 0 6
-7 4 -15 -5 -8 -8 -15 -23 -15 -33 0 -15 -2 -16 -10 -3 -9 13 -10 13 -11 0 -1
-8 -2 -17 -2 -20 0 -3 -14 -18 -30 -35 -16 -16 -26 -24 -23 -17 4 6 2 12 -3
12 -10 0 -15 -14 -12 -32 0 -4 -6 -5 -14 -2 -11 5 -13 2 -8 -12 4 -11 3 -15
-4 -11 -6 4 -13 0 -17 -8 -3 -8 -15 -15 -26 -15 -12 0 -19 -4 -15 -9 3 -5 -4
-12 -15 -16 -11 -4 -18 -11 -15 -16 4 -5 0 -9 -7 -9 -8 0 -20 -9 -28 -20 -8
-11 -19 -20 -24 -20 -12 0 -56 -49 -56 -62 0 -5 -4 -6 -10 -3 -5 3 -10 2 -10
-4 0 -6 -11 -13 -24 -17 -16 -4 -23 -11 -19 -20 3 -9 0 -14 -8 -12 -8 2 -13
-2 -12 -9 2 -7 -6 -10 -17 -8 -18 3 -24 -5 -22 -26 1 -4 -8 -5 -18 -2 -16 4
-19 2 -14 -11 4 -11 2 -15 -8 -11 -10 4 -19 -4 -28 -24 -7 -17 -17 -28 -25
-25 -7 3 -15 -2 -19 -11 -3 -9 -10 -13 -16 -10 -5 3 -10 -1 -10 -9 0 -10 -6
-13 -15 -9 -10 3 -15 0 -13 -8 2 -8 -7 -15 -19 -17 -13 -2 -29 -12 -36 -23 -8
-10 -17 -16 -20 -12 -4 3 -7 -2 -8 -13 0 -11 -3 -14 -6 -6 -3 9 -13 4 -30 -15
-14 -15 -22 -22 -19 -16 5 8 2 11 -7 7 -8 -3 -14 -13 -13 -22 1 -10 -12 -20
-37 -27 -21 -6 -35 -14 -31 -18 4 -4 0 -7 -10 -7 -10 0 -14 -5 -10 -12 5 -7 3
-8 -6 -3 -8 5 -18 1 -27 -10 -7 -11 -13 -16 -13 -13 0 3 -16 -9 -37 -28 -20
-18 -40 -31 -45 -28 -5 3 -12 -3 -15 -14 -3 -14 -10 -19 -21 -15 -9 4 -13 2
-9 -4 4 -6 0 -14 -9 -17 -9 -4 -13 -2 -8 5 9 15 -29 -6 -52 -28 -9 -10 -22
-18 -28 -19 -6 0 -19 -2 -29 -2 -9 -1 -16 -7 -15 -14 3 -11 -2 -14 -36 -17 -8
0 -17 -10 -21 -20 -4 -13 -13 -18 -26 -16 -17 4 -19 2 -8 -11 10 -12 9 -13 -5
-8 -10 4 -18 0 -22 -10 -3 -9 -10 -13 -15 -10 -5 3 -9 1 -9 -3 0 -5 -22 -16
-50 -26 -27 -10 -49 -23 -47 -30 1 -7 -9 -12 -25 -12 -16 1 -28 -4 -28 -10 0
-5 -9 -16 -21 -23 -17 -11 -20 -11 -13 0 4 7 -3 4 -16 -7 -15 -13 -21 -15 -16
-5 4 8 -1 4 -12 -9 -11 -13 -24 -21 -31 -17 -6 4 -14 0 -17 -8 -3 -9 -10 -13
-15 -10 -5 3 -21 -3 -37 -14 -41 -29 -76 -46 -68 -33 5 7 1 9 -8 5 -9 -3 -14
-10 -11 -14 3 -4 -2 -10 -10 -14 -8 -3 -15 -1 -15 3 0 5 -10 7 -22 3 -21 -5
-21 -6 -2 -13 16 -6 15 -8 -8 -8 -15 -1 -30 -5 -33 -11 -3 -5 -15 -10 -26 -10
-11 0 -18 -4 -15 -9 8 -13 -20 -21 -32 -9 -7 7 -12 3 -17 -11 -3 -12 -11 -22
-16 -22 -5 -1 -13 -2 -18 -3 -5 0 -12 -4 -16 -8 -4 -3 -18 -4 -31 -2 -17 3
-24 0 -24 -11 0 -8 -9 -15 -20 -15 -11 0 -23 -7 -26 -15 -4 -8 -10 -13 -14
-10 -5 3 -11 1 -15 -5 -4 -6 -12 -7 -18 -3 -18 11 -38 12 -31 1 3 -5 -3 -12
-15 -15 -12 -3 -21 -10 -21 -17 0 -6 -5 -4 -10 4 -8 12 -10 12 -10 1 0 -8 -3
-12 -6 -8 -4 3 -13 0 -21 -8 -17 -17 -33 -19 -33 -5 0 19 -20 10 -35 -17 -9
-16 -14 -20 -11 -11 3 12 1 15 -9 11 -8 -3 -12 -10 -9 -15 4 -6 -2 -8 -15 -3
-12 4 -21 2 -21 -4 0 -6 -3 -10 -7 -10 -5 1 -11 0 -15 -1 -5 -1 -11 -3 -15 -4
-5 -1 -18 -7 -31 -14 -12 -7 -26 -11 -31 -8 -4 3 -18 -4 -29 -15 -12 -11 -22
-16 -22 -12 0 5 -9 9 -20 9 -11 0 -20 -6 -20 -14 0 -7 -4 -10 -10 -7 -5 3 -10
1 -10 -6 0 -6 -8 -9 -20 -6 -11 3 -20 1 -20 -5 0 -6 -6 -8 -14 -5 -8 3 -16 1
-18 -5 -3 -7 -23 -12 -45 -12 -23 0 -40 -3 -38 -6 2 -3 -8 -10 -21 -17 -17 -8
-26 -8 -31 -1 -3 6 -1 8 4 5 6 -4 17 1 24 11 12 15 12 16 -2 5 -9 -7 -19 -10
-22 -6 -4 3 -10 -2 -13 -11 -5 -12 -9 -14 -14 -6 -5 8 -11 7 -23 -4 -18 -18
-31 -21 -21 -5 4 7 -3 6 -17 -2 -13 -7 -32 -12 -43 -10 -12 2 -16 -1 -10 -10
5 -9 2 -10 -9 -6 -10 4 -17 1 -17 -5 0 -6 -3 -8 -7 -5 -3 4 -12 2 -20 -4 -9
-9 -17 -8 -27 0 -11 9 -16 9 -22 0 -5 -8 -3 -9 6 -4 9 5 11 4 6 -4 -6 -9 -11
-9 -22 0 -10 8 -14 8 -14 0 0 -6 -5 -11 -11 -11 -5 0 -7 6 -3 13 6 9 5 9 -8 0
-8 -7 -18 -10 -21 -6 -4 3 -7 2 -7 -4 0 -6 -9 -9 -22 -5 -14 3 -19 1 -14 -6 4
-7 -4 -9 -24 -7 -19 3 -30 0 -30 -8 0 -17 -50 -21 -50 -4 0 7 -5 5 -10 -5 -7
-11 -19 -15 -41 -11 -19 3 -29 1 -25 -5 7 -11 -19 -10 -30 1 -4 3 -16 0 -26
-8 -11 -7 -26 -11 -33 -9 -6 3 -18 -2 -25 -11 -15 -17 -40 -20 -40 -4 0 8 -5
8 -15 -1 -8 -7 -24 -10 -35 -7 -11 3 -20 2 -20 -2 0 -4 -18 -7 -40 -6 -23 1
-43 -2 -46 -7 -3 -5 -10 -6 -15 -3 -5 4 -9 2 -9 -3 0 -11 -30 -9 -49 3 -9 5
-12 4 -8 -2 4 -6 0 -13 -8 -16 -10 -4 -12 -1 -8 11 6 15 5 15 -11 2 -10 -8
-28 -15 -39 -17 -12 -2 -32 -5 -44 -8 -12 -3 -25 -1 -28 5 -3 5 -11 10 -17 10
-6 0 -5 -7 3 -17 13 -15 12 -15 -8 -5 -14 8 -24 9 -28 2 -3 -5 -12 -10 -18
-10 -8 0 -8 3 2 9 9 6 10 11 2 15 -6 4 -15 -3 -20 -16 -6 -13 -10 -18 -10 -12
-1 7 -8 15 -17 18 -11 4 -15 2 -11 -7 5 -14 -46 -18 -59 -4 -13 12 -34 8 -34
-8 0 -8 -9 -15 -20 -15 -12 0 -20 7 -20 16 0 14 -2 14 -16 3 -20 -16 -42 -20
-50 -8 -9 16 -34 10 -34 -8 0 -13 -3 -14 -12 -5 -16 16 -31 15 -22 -1 4 -6 -2
-3 -14 7 -19 17 -22 17 -22 3 0 -13 -10 -16 -49 -14 -27 1 -47 5 -45 9 3 4 -5
6 -16 5 -11 -1 -20 -5 -20 -9 0 -3 -9 -6 -20 -5 -11 1 -20 4 -20 7 0 4 -7 7
-15 7 -8 0 -15 -4 -15 -8 0 -9 -20 -6 -39 5 -10 6 -12 5 -7 -2 4 -7 2 -12 -3
-12 -6 0 -11 6 -12 13 0 10 -2 10 -6 0 -2 -7 -9 -13 -14 -13 -6 0 -7 5 -4 10
3 6 1 10 -4 10 -6 0 -11 -6 -11 -12 0 -9 -3 -9 -8 -3 -8 12 -27 13 -38 3 -10
-10 -27 -10 -20 0 2 4 -4 9 -16 9 -13 1 -18 -3 -14 -13 3 -8 1 -14 -4 -14 -6
0 -10 5 -10 11 0 5 -4 7 -10 4 -5 -3 -10 -2 -10 4 0 9 -12 9 -42 -2 -41 -16
-49 -16 -54 -3 -4 11 -13 12 -34 6 -20 -6 -30 -5 -33 3 -3 9 -8 9 -18 -1 -7
-6 -18 -12 -24 -12 -5 0 -3 5 5 10 9 6 10 10 3 10 -6 0 -15 -5 -18 -10 -4 -7
-13 -7 -26 0 -10 6 -19 7 -19 3 0 -4 -5 -2 -12 5 -9 9 -15 9 -26 -1 -12 -9
-16 -9 -19 0 -2 7 -11 9 -20 6 -11 -4 -14 -2 -9 5 5 8 2 10 -8 6 -9 -3 -13
-11 -10 -18 3 -6 -2 -2 -10 8 -9 11 -16 15 -16 9 0 -6 -11 -10 -25 -9 -14 0
-25 4 -25 9 0 4 -5 7 -11 7 -5 0 -7 -6 -3 -12 6 -10 5 -10 -8 -1 -8 7 -18 10
-21 6 -4 -3 -7 -2 -7 4 0 11 -26 10 -73 -2 -23 -6 -26 -5 -21 10 6 15 4 16
-14 6 -26 -14 -69 -14 -77 0 -4 6 -13 8 -21 5 -7 -3 -16 -1 -19 4 -3 5 -18 5
-34 0 -21 -6 -31 -4 -34 4 -3 7 -23 11 -48 11 -24 -1 -53 4 -63 11 -13 9 -25
10 -38 3 -10 -5 -18 -6 -17 -2 3 19 -2 23 -20 14 -10 -6 -22 -7 -25 -3 -4 4
-15 7 -24 7 -9 0 -16 5 -15 10 1 6 -10 10 -23 10 -13 0 -24 -4 -24 -10 0 -5
-5 -3 -10 5 -5 8 -10 11 -10 5 0 -5 -5 -3 -10 5 -6 10 -10 11 -10 3 0 -7 -5
-13 -11 -13 -5 0 -7 5 -4 10 3 6 -1 10 -10 10 -9 0 -13 -4 -10 -10 3 -6 -1 -7
-9 -4 -9 3 -14 10 -11 14 2 4 -17 6 -42 4 -32 -2 -43 0 -33 6 12 8 9 10 -10
11 -14 1 -28 1 -32 0 -5 0 -8 3 -8 7 0 13 -33 11 -49 -2 -11 -8 -13 -8 -8 1 5
7 -1 16 -12 22 -25 14 -31 14 -31 0 0 -5 5 -7 12 -3 7 4 8 3 4 -4 -5 -8 -17
-5 -42 8 -39 22 -48 25 -39 10 4 -6 -2 -7 -17 -1 -13 4 -30 6 -38 4 -12 -4
-12 -3 -1 5 16 11 3 21 -23 16 -11 -1 -33 4 -49 12 -16 9 -26 11 -22 5 9 -16
-47 9 -62 28 -8 9 -13 10 -13 3 0 -7 -5 -12 -11 -12 -5 0 -7 5 -3 12 5 8 2 9
-11 4 -11 -4 -22 -2 -27 6 -6 10 -8 10 -8 1 0 -7 -5 -13 -11 -13 -6 0 -9 6 -6
13 4 10 -2 13 -19 9 -14 -2 -24 0 -24 7 0 7 -5 9 -10 6 -13 -8 -80 16 -74 27
3 4 1 8 -5 8 -5 0 -12 -6 -14 -12 -3 -8 -6 -6 -6 4 -1 11 -6 15 -15 12 -8 -3
-17 -1 -21 5 -3 6 -14 11 -23 11 -15 0 -15 -2 -2 -10 11 -7 12 -10 2 -10 -8 0
-16 9 -19 20 -6 23 -14 25 -32 8 -10 -9 -12 -9 -7 -1 3 6 2 14 -4 18 -5 3 -10
0 -10 -7 -1 -10 -4 -9 -13 2 -7 9 -19 15 -27 15 -8 0 -18 3 -21 8 -3 4 -20 9
-38 9 -17 1 -35 6 -39 13 -11 17 -42 27 -42 12 0 -8 -4 -7 -10 3 -5 8 -12 11
-16 8 -9 -10 -46 11 -39 22 3 4 -4 6 -15 3 -12 -3 -20 0 -20 7 0 7 -7 10 -16
6 -8 -3 -12 -2 -9 3 3 5 1 12 -5 16 -5 3 -10 0 -10 -7 0 -7 -7 -3 -15 9 -10
14 -23 20 -36 18 -25 -5 -62 18 -51 31 4 4 -1 2 -10 -5 -15 -11 -19 -11 -24 3
-3 9 -11 16 -18 15 -19 -2 -56 13 -51 21 3 5 -4 6 -15 3 -11 -3 -20 0 -20 6 0
6 -3 10 -7 9 -11 -2 -67 25 -74 36 -4 5 -12 5 -19 1 -9 -5 -11 -4 -6 3 5 8 -1
12 -14 12 -12 0 -18 4 -15 10 3 5 0 7 -8 4 -8 -3 -20 2 -27 10 -7 9 -16 13
-21 10 -5 -3 -9 0 -9 6 0 6 -9 10 -20 8 -10 -2 -25 5 -32 14 -7 10 -24 19 -37
21 -14 2 -28 12 -32 23 -5 13 -8 14 -9 4 0 -12 -3 -11 -11 3 -9 15 -13 16 -27
5 -12 -10 -14 -10 -8 0 4 8 0 15 -13 20 -11 4 -20 11 -20 17 0 5 -12 11 -26
12 -14 1 -32 9 -41 17 -17 18 -28 21 -19 6 3 -5 2 -10 -3 -10 -15 0 -22 28 -9
34 10 4 -45 10 -65 7 -4 0 -5 5 -2 13 3 8 0 17 -7 22 -8 5 -10 3 -4 -5 5 -9 2
-9 -14 0 -15 10 -17 16 -8 22 8 6 4 7 -10 4 -17 -4 -23 0 -24 11 0 11 -2 12
-6 5 -2 -7 -9 -13 -14 -13 -6 0 -7 5 -3 12 5 8 2 9 -9 5 -12 -4 -17 -1 -17 12
0 17 -10 21 -52 22 -10 0 -18 6 -18 12 0 7 -16 21 -35 31 -19 11 -35 23 -35
28 0 4 -5 8 -11 8 -5 0 -7 -4 -4 -10 13 -21 -8 -8 -38 22 -16 18 -34 32 -40
30 -5 -2 -7 4 -4 13 4 8 2 15 -3 15 -6 0 -10 -6 -10 -12 0 -7 -5 -5 -11 5 -6
9 -14 15 -18 12 -12 -7 -34 22 -26 35 4 6 3 10 -2 9 -4 -1 -17 -1 -28 0 -17 1
-18 3 -5 11 13 9 13 10 0 11 -8 1 -21 1 -29 0 -7 -2 -10 2 -6 8 3 6 -2 11 -13
11 -10 0 -29 10 -42 23 -14 12 -29 20 -35 19 -5 -2 -7 0 -3 4 13 13 -13 36
-27 24 -10 -8 -13 -6 -11 7 0 10 -5 18 -12 18 -8 0 -20 8 -27 18 -7 10 -21 17
-32 15 -13 -2 -17 2 -15 16 2 13 -1 17 -11 13 -9 -3 -20 4 -27 19 -8 13 -17
24 -22 24 -5 0 -20 12 -35 26 -14 14 -32 23 -40 20 -8 -3 -12 -2 -9 3 3 5 -1
11 -9 15 -8 3 -15 12 -15 21 0 8 -5 15 -11 15 -5 0 -7 -6 -4 -12 4 -7 -1 -4
-9 6 -9 11 -16 23 -16 28 0 4 -8 4 -17 1 -12 -5 -15 -2 -10 10 5 13 -2 19 -26
26 -18 5 -26 10 -19 10 6 1 12 6 12 12 0 5 -4 7 -10 4 -5 -3 -10 -1 -10 5 0 6
-4 9 -9 6 -5 -4 -19 6 -30 21 -11 16 -21 22 -21 15 0 -7 -5 -10 -10 -7 -7 5
-8 11 -1 19 7 8 4 12 -10 13 -21 2 -51 27 -44 37 3 3 2 4 -2 1 -3 -3 -12 0
-20 6 -11 10 -11 15 -1 27 7 9 8 13 2 9 -12 -7 -79 31 -70 40 11 11 -25 42
-42 36 -8 -4 -13 -2 -9 3 3 6 2 16 -4 24 -7 13 -9 13 -9 0 0 -8 -11 2 -24 23
-15 25 -26 34 -29 25 -3 -8 -6 -6 -6 6 -1 10 -18 35 -38 55 -21 20 -34 30 -30
24 5 -7 4 -13 -2 -13 -10 0 -15 14 -12 33 0 4 -4 6 -11 5 -6 -2 -17 7 -23 19
-7 13 -14 20 -17 17 -4 -3 -9 9 -13 26 -6 25 -9 29 -21 19 -10 -8 -14 -8 -14
0 0 6 -7 11 -16 11 -13 0 -14 3 -5 14 9 11 8 14 -6 12 -13 -1 -18 6 -17 21 0
12 -3 20 -8 17 -10 -7 -39 21 -31 30 4 3 -1 6 -10 6 -9 0 -17 5 -17 11 0 5 6
7 13 3 8 -5 8 -2 -2 9 -7 9 -20 17 -27 17 -8 0 -14 9 -14 20 0 11 -7 20 -15
20 -9 0 -15 10 -16 23 0 12 -3 16 -6 10 -2 -7 -9 -13 -15 -13 -6 0 -7 7 -4 16
5 12 2 15 -11 10 -14 -5 -15 -4 -7 4 9 9 6 18 -11 36 -12 13 -27 24 -34 24 -6
0 -11 6 -11 14 0 8 -7 17 -16 20 -9 4 -14 13 -10 21 3 8 2 14 -2 14 -26 -4
-34 1 -22 16 9 10 9 15 1 16 -6 1 -16 2 -22 3 -18 2 -38 37 -32 54 5 11 2 14
-10 9 -10 -4 -18 -1 -19 6 0 7 -2 17 -3 22 -2 6 -3 16 -4 23 0 7 -6 10 -11 7
-6 -3 -14 5 -20 19 -5 14 -16 26 -23 26 -17 0 -40 47 -31 62 4 6 2 8 -4 4 -12
-7 -52 39 -52 60 0 8 -5 14 -11 14 -5 0 -7 -5 -3 -12 4 -7 3 -8 -5 -4 -6 4 -9
12 -6 17 4 5 0 9 -7 9 -10 0 -10 2 -1 8 9 5 3 17 -18 40 -17 18 -27 37 -24 42
3 6 -1 7 -10 3 -13 -4 -16 -1 -13 18 2 13 -2 24 -9 24 -6 0 -15 3 -19 8 -4 4
-1 7 6 7 11 0 11 3 2 12 -14 14 -6 23 318 358 329 340 373 389 509 569 498
657 884 1225 1279 1881 99 165 363 637 488 872 54 102 101 185 103 183 2 -2
-2 -100 -8 -217 -50 -941 -53 -2473 -6 -3163 65 -933 204 -1279 515 -1280 188
0 316 132 438 455 54 142 92 267 222 730 313 1111 462 1593 670 2170 885 2446
2045 4262 3732 5837 211 198 782 673 808 673 3 0 12 -6 19 -12z m-9649 -2972
c0 -3 -4 -8 -10 -11 -5 -3 -10 -1 -10 4 0 6 5 11 10 11 6 0 10 -2 10 -4z
m-507 -2451 c-3 -9 -8 -14 -10 -11 -3 3 -2 9 2 15 9 16 15 13 8 -4z m13127
-379 c0 -3 -4 -8 -10 -11 -5 -3 -10 -1 -10 4 0 6 5 11 10 11 6 0 10 -2 10 -4z"/>
<path d="M10896 17848 c3 -5 10 -6 15 -3 13 9 11 12 -6 12 -8 0 -12 -4 -9 -9z"/>
<path d="M13470 17759 c0 -5 5 -7 10 -4 6 3 10 8 10 11 0 2 -4 4 -10 4 -5 0
-10 -5 -10 -11z"/>
<path d="M6363 14805 c-3 -9 -3 -18 -1 -21 3 -3 8 4 11 16 6 23 -1 27 -10 5z"/>
<path d="M5445 12170 c-3 -5 -1 -10 4 -10 6 0 11 5 11 10 0 6 -2 10 -4 10 -3
0 -8 -4 -11 -10z"/>
<path d="M5421 10954 c0 -11 3 -14 6 -6 3 7 2 16 -1 19 -3 4 -6 -2 -5 -13z"/>
<path d="M18005 13900 c3 -5 8 -10 11 -10 2 0 4 5 4 10 0 6 -5 10 -11 10 -5 0
-7 -4 -4 -10z"/>
<path d="M18285 9670 c3 -5 8 -10 11 -10 2 0 4 5 4 10 0 6 -5 10 -11 10 -5 0
-7 -4 -4 -10z"/>
<path d="M6615 7580 c3 -5 8 -10 11 -10 2 0 4 5 4 10 0 6 -5 10 -11 10 -5 0
-7 -4 -4 -10z"/>
<path d="M17285 7560 c4 -6 11 -8 16 -5 14 9 11 15 -7 15 -8 0 -12 -5 -9 -10z"/>
<path d="M6785 7351 c-3 -5 -1 -12 5 -16 5 -3 10 1 10 9 0 18 -6 21 -15 7z"/>
<path d="M7455 6610 c3 -5 11 -10 16 -10 6 0 7 5 4 10 -3 6 -11 10 -16 10 -6
0 -7 -4 -4 -10z"/>
<path d="M16445 6600 c3 -5 8 -10 11 -10 2 0 4 5 4 10 0 6 -5 10 -11 10 -5 0
-7 -4 -4 -10z"/>
<path d="M12455 4840 c-3 -5 -1 -10 4 -10 6 0 11 5 11 10 0 6 -2 10 -4 10 -3
0 -8 -4 -11 -10z"/>
</g>
</svg>
