<?xml version="1.0" standalone="no"?>
<!DOCTYPE svg PUBLIC "-//W3C//DTD SVG 20010904//EN"
 "http://www.w3.org/TR/2001/REC-SVG-20010904/DTD/svg10.dtd">
<svg version="1.0" xmlns="http://www.w3.org/2000/svg"
 width="831.000000pt" height="554.000000pt" viewBox="0 0 831.000000 554.000000"
 preserveAspectRatio="xMidYMid meet">
<style>
  #svgg > path {
    background-color: white;
    fill: black;
  }
  @media (prefers-color-scheme: dark) {
    #svgg > path {
      background-color: black;
      fill: white;
    }
  }
</style>
<g id="svgg" transform="translate(0.000000,554.000000) scale(0.100000,-0.100000)" stroke="none">
<path d="M5665 5533 c-305 -39 -624 -181 -1070 -476 -557 -368 -1217 -1082
-1644 -1780 -457 -747 -763 -1508 -1096 -2727 -20 -74 -40 -139 -45 -143 -9
-10 -15 28 -32 198 -18 178 -18 1372 0 1610 17 222 38 423 64 615 18 132 31
186 89 360 110 332 150 550 115 618 -20 39 -62 62 -113 62 -50 0 -76 -19 -103
-77 -20 -43 -121 -420 -135 -504 -3 -19 -15 -76 -26 -128 -81 -362 -644 -1406
-1149 -2131 -47 -69 -117 -179 -154 -246 -62 -110 -281 -421 -343 -486 -26
-27 -26 -58 0 -58 16 0 498 485 574 577 28 34 109 142 180 240 281 386 505
743 713 1135 46 85 70 121 66 100 -8 -47 -21 -636 -21 -952 0 -345 12 -743 25
-850 28 -220 78 -373 137 -419 91 -72 199 -29 268 108 40 80 49 109 185 581
201 702 336 1086 531 1518 335 740 692 1291 1186 1832 246 270 560 560 803
743 146 110 410 283 565 370 77 43 185 106 240 139 55 34 152 88 215 120 l115
58 -55 -1 c-30 -1 -68 -4 -85 -6z"/>
<path d="M8155 5525 c-5 -1 -55 -12 -110 -25 -147 -32 -344 -95 -449 -144
-209 -97 -529 -290 -726 -437 -474 -353 -1000 -928 -1383 -1509 -479 -730
-810 -1502 -1132 -2645 -59 -209 -111 -384 -115 -388 -10 -12 -28 139 -41 358
-14 225 -6 1255 10 1470 22 277 56 573 87 750 3 16 28 95 55 175 86 248 139
467 139 570 0 93 -41 140 -123 140 -41 0 -53 -5 -76 -29 -41 -44 -96 -231
-176 -602 -36 -173 -72 -270 -199 -549 -207 -452 -624 -1169 -966 -1660 -47
-69 -117 -179 -154 -246 -62 -110 -281 -421 -343 -486 -26 -27 -26 -58 0 -58
23 0 536 527 623 640 305 396 614 876 844 1312 l70 133 -5 -85 c-15 -254 -26
-874 -21 -1135 10 -444 26 -662 63 -820 52 -227 176 -311 299 -203 71 62 106
154 239 628 267 948 504 1552 860 2195 390 705 957 1374 1605 1894 136 110
417 300 585 396 66 38 195 113 287 167 92 54 185 105 205 112 21 8 72 30 113
50 l75 35 -65 0 c-36 0 -69 -2 -75 -4z"/>
</g>
</svg>
